<?xml version="1.0" encoding="UTF-8" standalone="no"?>
<!DOCTYPE svg PUBLIC "-//W3C//DTD SVG 1.1//EN"
 "http://www.w3.org/Graphics/SVG/1.1/DTD/svg11.dtd">
<!-- Generated by graphviz version 2.38.0 (20140413.2041)
 -->
<!-- Title: G Pages: 1 -->
<svg width="1380pt" height="1764pt"
 viewBox="0.00 0.00 1379.72 1764.00" xmlns="http://www.w3.org/2000/svg" xmlns:xlink="http://www.w3.org/1999/xlink">
<g id="graph0" class="graph" transform="scale(1 1) rotate(0) translate(4 1760)">
<title>G</title>
<polygon fill="white" stroke="none" points="-4,4 -4,-1760 1375.72,-1760 1375.72,4 -4,4"/>
<g id="clust1" class="cluster"><title>cluster_Global</title>
<path fill="none" stroke="gray" d="M611.029,-44C611.029,-44 1351.72,-44 1351.72,-44 1357.72,-44 1363.72,-50 1363.72,-56 1363.72,-56 1363.72,-1736 1363.72,-1736 1363.72,-1742 1357.72,-1748 1351.72,-1748 1351.72,-1748 611.029,-1748 611.029,-1748 605.029,-1748 599.029,-1742 599.029,-1736 599.029,-1736 599.029,-56 599.029,-56 599.029,-50 605.029,-44 611.029,-44"/>
<text text-anchor="middle" x="981.376" y="-1735.2" font-family="Times,serif" font-size="11.00" fill="gray">Global</text>
</g>
<g id="clust2" class="cluster"><title>cluster_\GSoares</title>
<path fill="none" stroke="gray" d="M619.029,-52C619.029,-52 1343.72,-52 1343.72,-52 1349.72,-52 1355.72,-58 1355.72,-64 1355.72,-64 1355.72,-1709 1355.72,-1709 1355.72,-1715 1349.72,-1721 1343.72,-1721 1343.72,-1721 619.029,-1721 619.029,-1721 613.029,-1721 607.029,-1715 607.029,-1709 607.029,-1709 607.029,-64 607.029,-64 607.029,-58 613.029,-52 619.029,-52"/>
<text text-anchor="middle" x="981.376" y="-1708.2" font-family="Times,serif" font-size="11.00" fill="gray">GSoares</text>
</g>
<g id="clust3" class="cluster"><title>cluster_\GSoares\CleanCode</title>
<path fill="none" stroke="gray" d="M627.029,-60C627.029,-60 1335.72,-60 1335.72,-60 1341.72,-60 1347.72,-66 1347.72,-72 1347.72,-72 1347.72,-1682 1347.72,-1682 1347.72,-1688 1341.72,-1694 1335.72,-1694 1335.72,-1694 627.029,-1694 627.029,-1694 621.029,-1694 615.029,-1688 615.029,-1682 615.029,-1682 615.029,-72 615.029,-72 615.029,-66 621.029,-60 627.029,-60"/>
<text text-anchor="middle" x="981.376" y="-1681.2" font-family="Times,serif" font-size="11.00" fill="gray">CleanCode</text>
</g>
<g id="clust4" class="cluster"><title>cluster_\GSoares\CleanCode\Application</title>
<path fill="none" stroke="gray" d="M635.029,-905C635.029,-905 1327.72,-905 1327.72,-905 1333.72,-905 1339.72,-911 1339.72,-917 1339.72,-917 1339.72,-1655 1339.72,-1655 1339.72,-1661 1333.72,-1667 1327.72,-1667 1327.72,-1667 635.029,-1667 635.029,-1667 629.029,-1667 623.029,-1661 623.029,-1655 623.029,-1655 623.029,-917 623.029,-917 623.029,-911 629.029,-905 635.029,-905"/>
<text text-anchor="middle" x="981.376" y="-1654.2" font-family="Times,serif" font-size="11.00" fill="gray">Application</text>
</g>
<g id="clust5" class="cluster"><title>cluster_\GSoares\CleanCode\Application\Factory</title>
<path fill="none" stroke="gray" d="M898.873,-1347C898.873,-1347 1317.82,-1347 1317.82,-1347 1323.82,-1347 1329.82,-1353 1329.82,-1359 1329.82,-1359 1329.82,-1628 1329.82,-1628 1329.82,-1634 1323.82,-1640 1317.82,-1640 1317.82,-1640 898.873,-1640 898.873,-1640 892.873,-1640 886.873,-1634 886.873,-1628 886.873,-1628 886.873,-1359 886.873,-1359 886.873,-1353 892.873,-1347 898.873,-1347"/>
<text text-anchor="middle" x="1108.35" y="-1627.2" font-family="Times,serif" font-size="11.00" fill="gray">Factory</text>
</g>
<g id="clust6" class="cluster"><title>cluster_\GSoares\CleanCode\Application\Factory\Entity</title>
<path fill="none" stroke="gray" d="M939.878,-1434C939.878,-1434 1309.82,-1434 1309.82,-1434 1315.82,-1434 1321.82,-1440 1321.82,-1446 1321.82,-1446 1321.82,-1601 1321.82,-1601 1321.82,-1607 1315.82,-1613 1309.82,-1613 1309.82,-1613 939.878,-1613 939.878,-1613 933.878,-1613 927.878,-1607 927.878,-1601 927.878,-1601 927.878,-1446 927.878,-1446 927.878,-1440 933.878,-1434 939.878,-1434"/>
<text text-anchor="middle" x="1124.85" y="-1600.2" font-family="Times,serif" font-size="11.00" fill="gray">Entity</text>
</g>
<g id="clust7" class="cluster"><title>cluster_\GSoares\CleanCode\Application\Factory\Route</title>
<path fill="none" stroke="gray" d="M906.873,-1355C906.873,-1355 1303.22,-1355 1303.22,-1355 1309.22,-1355 1315.22,-1361 1315.22,-1367 1315.22,-1367 1315.22,-1414 1315.22,-1414 1315.22,-1420 1309.22,-1426 1303.22,-1426 1303.22,-1426 906.873,-1426 906.873,-1426 900.873,-1426 894.873,-1420 894.873,-1414 894.873,-1414 894.873,-1367 894.873,-1367 894.873,-1361 900.873,-1355 906.873,-1355"/>
<text text-anchor="middle" x="1105.05" y="-1413.2" font-family="Times,serif" font-size="11.00" fill="gray">Route</text>
</g>
<g id="clust8" class="cluster"><title>cluster_\GSoares\CleanCode\Application\Controller</title>
<path fill="none" stroke="gray" d="M643.029,-913C643.029,-913 1319.72,-913 1319.72,-913 1325.72,-913 1331.72,-919 1331.72,-925 1331.72,-925 1331.72,-1134 1331.72,-1134 1331.72,-1140 1325.72,-1146 1319.72,-1146 1319.72,-1146 643.029,-1146 643.029,-1146 637.029,-1146 631.029,-1140 631.029,-1134 631.029,-1134 631.029,-925 631.029,-925 631.029,-919 637.029,-913 643.029,-913"/>
<text text-anchor="middle" x="981.376" y="-1133.2" font-family="Times,serif" font-size="11.00" fill="gray">Controller</text>
</g>
<g id="clust9" class="cluster"><title>cluster_\GSoares\CleanCode\Application\Service</title>
<path fill="none" stroke="gray" d="M902.173,-1154C902.173,-1154 1284.82,-1154 1284.82,-1154 1290.82,-1154 1296.82,-1160 1296.82,-1166 1296.82,-1166 1296.82,-1327 1296.82,-1327 1296.82,-1333 1290.82,-1339 1284.82,-1339 1284.82,-1339 902.173,-1339 902.173,-1339 896.173,-1339 890.173,-1333 890.173,-1327 890.173,-1327 890.173,-1166 890.173,-1166 890.173,-1160 896.173,-1154 902.173,-1154"/>
<text text-anchor="middle" x="1093.5" y="-1326.2" font-family="Times,serif" font-size="11.00" fill="gray">Service</text>
</g>
<g id="clust10" class="cluster"><title>cluster_\GSoares\CleanCode\Application\Service\DateTime</title>
<path fill="none" stroke="gray" d="M910.173,-1241C910.173,-1241 1276.82,-1241 1276.82,-1241 1282.82,-1241 1288.82,-1247 1288.82,-1253 1288.82,-1253 1288.82,-1300 1288.82,-1300 1288.82,-1306 1282.82,-1312 1276.82,-1312 1276.82,-1312 910.173,-1312 910.173,-1312 904.173,-1312 898.173,-1306 898.173,-1300 898.173,-1300 898.173,-1253 898.173,-1253 898.173,-1247 904.173,-1241 910.173,-1241"/>
<text text-anchor="middle" x="1093.5" y="-1299.2" font-family="Times,serif" font-size="11.00" fill="gray">DateTime</text>
</g>
<g id="clust11" class="cluster"><title>cluster_\GSoares\CleanCode\Application\Service\Response</title>
<path fill="none" stroke="gray" d="M943.178,-1162C943.178,-1162 1266.92,-1162 1266.92,-1162 1272.92,-1162 1278.92,-1168 1278.92,-1174 1278.92,-1174 1278.92,-1221 1278.92,-1221 1278.92,-1227 1272.92,-1233 1266.92,-1233 1266.92,-1233 943.178,-1233 943.178,-1233 937.178,-1233 931.178,-1227 931.178,-1221 931.178,-1221 931.178,-1174 931.178,-1174 931.178,-1168 937.178,-1162 943.178,-1162"/>
<text text-anchor="middle" x="1105.05" y="-1220.2" font-family="Times,serif" font-size="11.00" fill="gray">Response</text>
</g>
<g id="clust12" class="cluster"><title>cluster_\GSoares\CleanCode\Service</title>
<path fill="none" stroke="gray" d="M638.329,-604C638.329,-604 1304.62,-604 1304.62,-604 1310.62,-604 1316.62,-610 1316.62,-616 1316.62,-616 1316.62,-885 1316.62,-885 1316.62,-891 1310.62,-897 1304.62,-897 1304.62,-897 638.329,-897 638.329,-897 632.329,-897 626.329,-891 626.329,-885 626.329,-885 626.329,-616 626.329,-616 626.329,-610 632.329,-604 638.329,-604"/>
<text text-anchor="middle" x="971.475" y="-884.2" font-family="Times,serif" font-size="11.00" fill="gray">Service</text>
</g>
<g id="clust13" class="cluster"><title>cluster_\GSoares\CleanCode\Service\Account</title>
<path fill="none" stroke="gray" d="M659.531,-745C659.531,-745 1270.22,-745 1270.22,-745 1276.22,-745 1282.22,-751 1282.22,-757 1282.22,-757 1282.22,-858 1282.22,-858 1282.22,-864 1276.22,-870 1270.22,-870 1270.22,-870 659.531,-870 659.531,-870 653.531,-870 647.531,-864 647.531,-858 647.531,-858 647.531,-757 647.531,-757 647.531,-751 653.531,-745 659.531,-745"/>
<text text-anchor="middle" x="964.874" y="-857.2" font-family="Times,serif" font-size="11.00" fill="gray">Account</text>
</g>
<g id="clust14" class="cluster"><title>cluster_\GSoares\CleanCode\Service\AccountEntry</title>
<path fill="none" stroke="gray" d="M646.329,-612C646.329,-612 1296.62,-612 1296.62,-612 1302.62,-612 1308.62,-618 1308.62,-624 1308.62,-624 1308.62,-725 1308.62,-725 1308.62,-731 1302.62,-737 1296.62,-737 1296.62,-737 646.329,-737 646.329,-737 640.329,-737 634.329,-731 634.329,-725 634.329,-725 634.329,-624 634.329,-624 634.329,-618 640.329,-612 646.329,-612"/>
<text text-anchor="middle" x="971.475" y="-724.2" font-family="Times,serif" font-size="11.00" fill="gray">AccountEntry</text>
</g>
<g id="clust15" class="cluster"><title>cluster_\GSoares\CleanCode\Entity</title>
<path fill="none" stroke="gray" d="M943.178,-255C943.178,-255 1316.42,-255 1316.42,-255 1322.42,-255 1328.42,-261 1328.42,-267 1328.42,-267 1328.42,-584 1328.42,-584 1328.42,-590 1322.42,-596 1316.42,-596 1316.42,-596 943.178,-596 943.178,-596 937.178,-596 931.178,-590 931.178,-584 931.178,-584 931.178,-267 931.178,-267 931.178,-261 937.178,-255 943.178,-255"/>
<text text-anchor="middle" x="1129.8" y="-583.2" font-family="Times,serif" font-size="11.00" fill="gray">Entity</text>
</g>
<g id="clust16" class="cluster"><title>cluster_\GSoares\CleanCode\Repository</title>
<path fill="none" stroke="gray" d="M643.029,-68C643.029,-68 1319.72,-68 1319.72,-68 1325.72,-68 1331.72,-74 1331.72,-80 1331.72,-80 1331.72,-235 1331.72,-235 1331.72,-241 1325.72,-247 1319.72,-247 1319.72,-247 643.029,-247 643.029,-247 637.029,-247 631.029,-241 631.029,-235 631.029,-235 631.029,-80 631.029,-80 631.029,-74 637.029,-68 643.029,-68"/>
<text text-anchor="middle" x="981.376" y="-234.2" font-family="Times,serif" font-size="11.00" fill="gray">Repository</text>
</g>
<!-- \\GSoares\\CleanCode\\Application\\Factory\\Entity\\AccountEntryFactory -->
<g id="node1" class="node"><title>\\GSoares\\CleanCode\\Application\\Factory\\Entity\\AccountEntryFactory</title>
<polygon fill="none" stroke="black" points="1314.03,-1586 1172.19,-1586 1172.19,-1550 1314.03,-1550 1314.03,-1586"/>
<text text-anchor="middle" x="1243.11" y="-1564.7" font-family="Courier,monospace" font-size="11.00">AccountEntryFactory</text>
</g>
<!-- \\GSoares\\CleanCode\\Application\\Factory\\Entity\\FactoryInterface -->
<g id="node4" class="node"><title>\\GSoares\\CleanCode\\Application\\Factory\\Entity\\FactoryInterface</title>
<polygon fill="none" stroke="black" points="1057.3,-1532 936.069,-1532 936.069,-1496 1057.3,-1496 1057.3,-1532"/>
<text text-anchor="middle" x="996.687" y="-1510.7" font-family="Courier,monospace" font-size="11.00">FactoryInterface</text>
</g>
<!-- \\GSoares\\CleanCode\\Application\\Factory\\Entity\\AccountEntryFactory&#45;&gt;\\GSoares\\CleanCode\\Application\\Factory\\Entity\\FactoryInterface -->
<g id="edge1" class="edge"><title>\\GSoares\\CleanCode\\Application\\Factory\\Entity\\AccountEntryFactory&#45;&gt;\\GSoares\\CleanCode\\Application\\Factory\\Entity\\FactoryInterface</title>
<path fill="none" stroke="black" stroke-dasharray="1,5" d="M1172.4,-1552.6C1139.53,-1545.34 1100.42,-1536.7 1067.53,-1529.43"/>
<polygon fill="none" stroke="black" points="1068.06,-1525.96 1057.54,-1527.22 1066.55,-1532.8 1068.06,-1525.96"/>
</g>
<!-- \\GSoares\\CleanCode\\Application\\Factory\\Entity\\AccountFactory -->
<g id="node2" class="node"><title>\\GSoares\\CleanCode\\Application\\Factory\\Entity\\AccountFactory</title>
<polygon fill="none" stroke="black" points="1297.53,-1532 1188.7,-1532 1188.7,-1496 1297.53,-1496 1297.53,-1532"/>
<text text-anchor="middle" x="1243.11" y="-1510.7" font-family="Courier,monospace" font-size="11.00">AccountFactory</text>
</g>
<!-- \\GSoares\\CleanCode\\Application\\Factory\\Entity\\AccountFactory&#45;&gt;\\GSoares\\CleanCode\\Application\\Factory\\Entity\\FactoryInterface -->
<g id="edge11" class="edge"><title>\\GSoares\\CleanCode\\Application\\Factory\\Entity\\AccountFactory&#45;&gt;\\GSoares\\CleanCode\\Application\\Factory\\Entity\\FactoryInterface</title>
<path fill="none" stroke="black" stroke-dasharray="1,5" d="M1188.77,-1514C1153.19,-1514 1106.03,-1514 1067.46,-1514"/>
<polygon fill="none" stroke="black" points="1067.35,-1510.5 1057.35,-1514 1067.35,-1517.5 1067.35,-1510.5"/>
</g>
<!-- \\GSoares\\CleanCode\\Application\\Factory\\Entity\\CustomerFactory -->
<g id="node3" class="node"><title>\\GSoares\\CleanCode\\Application\\Factory\\Entity\\CustomerFactory</title>
<polygon fill="none" stroke="black" points="1300.63,-1478 1185.6,-1478 1185.6,-1442 1300.63,-1442 1300.63,-1478"/>
<text text-anchor="middle" x="1243.11" y="-1456.7" font-family="Courier,monospace" font-size="11.00">CustomerFactory</text>
</g>
<!-- \\GSoares\\CleanCode\\Application\\Factory\\Entity\\CustomerFactory&#45;&gt;\\GSoares\\CleanCode\\Application\\Factory\\Entity\\FactoryInterface -->
<g id="edge13" class="edge"><title>\\GSoares\\CleanCode\\Application\\Factory\\Entity\\CustomerFactory&#45;&gt;\\GSoares\\CleanCode\\Application\\Factory\\Entity\\FactoryInterface</title>
<path fill="none" stroke="black" stroke-dasharray="1,5" d="M1185.42,-1472.52C1150.21,-1480.3 1104.69,-1490.36 1067.3,-1498.62"/>
<polygon fill="none" stroke="black" points="1066.49,-1495.22 1057.48,-1500.79 1068,-1502.05 1066.49,-1495.22"/>
</g>
<!-- \\GSoares\\CleanCode\\Application\\Factory\\Route\\UrlMatcherFactory -->
<g id="node5" class="node"><title>\\GSoares\\CleanCode\\Application\\Factory\\Route\\UrlMatcherFactory</title>
<polygon fill="none" stroke="black" points="1307.33,-1399 1178.89,-1399 1178.89,-1363 1307.33,-1363 1307.33,-1399"/>
<text text-anchor="middle" x="1243.11" y="-1377.7" font-family="Courier,monospace" font-size="11.00">UrlMatcherFactory</text>
</g>
<!-- \\GSoares\\CleanCode\\Application\\Factory\\Route\\UrlMatcherFactoryInterface -->
<g id="node6" class="node"><title>\\GSoares\\CleanCode\\Application\\Factory\\Route\\UrlMatcherFactoryInterface</title>
<polygon fill="none" stroke="black" points="1090.31,-1399 903.058,-1399 903.058,-1363 1090.31,-1363 1090.31,-1399"/>
<text text-anchor="middle" x="996.687" y="-1377.7" font-family="Courier,monospace" font-size="11.00">UrlMatcherFactoryInterface</text>
</g>
<!-- \\GSoares\\CleanCode\\Application\\Factory\\Route\\UrlMatcherFactory&#45;&gt;\\GSoares\\CleanCode\\Application\\Factory\\Route\\UrlMatcherFactoryInterface -->
<g id="edge10" class="edge"><title>\\GSoares\\CleanCode\\Application\\Factory\\Route\\UrlMatcherFactory&#45;&gt;\\GSoares\\CleanCode\\Application\\Factory\\Route\\UrlMatcherFactoryInterface</title>
<path fill="none" stroke="black" stroke-dasharray="1,5" d="M1178.85,-1381C1155.02,-1381 1127.25,-1381 1100.73,-1381"/>
<polygon fill="none" stroke="black" points="1100.63,-1377.5 1090.63,-1381 1100.63,-1384.5 1100.63,-1377.5"/>
</g>
<!-- \\GSoares\\CleanCode\\Application\\Controller\\AccountController -->
<g id="node7" class="node"><title>\\GSoares\\CleanCode\\Application\\Controller\\AccountController</title>
<polygon fill="none" stroke="black" points="1307.33,-1119 1178.89,-1119 1178.89,-1083 1307.33,-1083 1307.33,-1119"/>
<text text-anchor="middle" x="1243.11" y="-1097.7" font-family="Courier,monospace" font-size="11.00">AccountController</text>
</g>
<!-- \\GSoares\\CleanCode\\Application\\Controller\\AbstractController -->
<g id="node8" class="node"><title>\\GSoares\\CleanCode\\Application\\Controller\\AbstractController</title>
<polygon fill="none" stroke="black" points="1064.01,-1065 929.367,-1065 929.367,-1029 1064.01,-1029 1064.01,-1065"/>
<text text-anchor="middle" x="996.687" y="-1043.7" font-family="Courier,monospace" font-size="11.00">AbstractController</text>
</g>
<!-- \\GSoares\\CleanCode\\Application\\Controller\\AccountController&#45;&gt;\\GSoares\\CleanCode\\Application\\Controller\\AbstractController -->
<g id="edge2" class="edge"><title>\\GSoares\\CleanCode\\Application\\Controller\\AccountController&#45;&gt;\\GSoares\\CleanCode\\Application\\Controller\\AbstractController</title>
<path fill="none" stroke="black" d="M1178.85,-1087.02C1146.79,-1079.94 1107.62,-1071.29 1073.91,-1063.84"/>
<polygon fill="none" stroke="black" points="1074.62,-1060.41 1064.1,-1061.67 1073.11,-1067.25 1074.62,-1060.41"/>
</g>
<!-- \\GSoares\\CleanCode\\Application\\Controller\\ControllerInterface -->
<g id="node12" class="node"><title>\\GSoares\\CleanCode\\Application\\Controller\\ControllerInterface</title>
<polygon fill="none" stroke="black" points="780.66,-1092 638.818,-1092 638.818,-1056 780.66,-1056 780.66,-1092"/>
<text text-anchor="middle" x="709.739" y="-1070.7" font-family="Courier,monospace" font-size="11.00">ControllerInterface</text>
</g>
<!-- \\GSoares\\CleanCode\\Application\\Controller\\AbstractController&#45;&gt;\\GSoares\\CleanCode\\Application\\Controller\\ControllerInterface -->
<g id="edge3" class="edge"><title>\\GSoares\\CleanCode\\Application\\Controller\\AbstractController&#45;&gt;\\GSoares\\CleanCode\\Application\\Controller\\ControllerInterface</title>
<path fill="none" stroke="black" stroke-dasharray="1,5" d="M929.239,-1053.3C887.816,-1057.22 834.269,-1062.3 790.551,-1066.44"/>
<polygon fill="none" stroke="black" points="790.149,-1062.96 780.524,-1067.39 790.81,-1069.93 790.149,-1062.96"/>
</g>
<!-- \\GSoares\\CleanCode\\Application\\Controller\\IndexController -->
<g id="node9" class="node"><title>\\GSoares\\CleanCode\\Application\\Controller\\IndexController</title>
<polygon fill="none" stroke="black" points="1300.63,-1065 1185.6,-1065 1185.6,-1029 1300.63,-1029 1300.63,-1065"/>
<text text-anchor="middle" x="1243.11" y="-1043.7" font-family="Courier,monospace" font-size="11.00">IndexController</text>
</g>
<!-- \\GSoares\\CleanCode\\Application\\Controller\\IndexController&#45;&gt;\\GSoares\\CleanCode\\Application\\Controller\\AbstractController -->
<g id="edge4" class="edge"><title>\\GSoares\\CleanCode\\Application\\Controller\\IndexController&#45;&gt;\\GSoares\\CleanCode\\Application\\Controller\\AbstractController</title>
<path fill="none" stroke="black" d="M1185.42,-1047C1152.43,-1047 1110.4,-1047 1074.48,-1047"/>
<polygon fill="none" stroke="black" points="1074.03,-1043.5 1064.03,-1047 1074.03,-1050.5 1074.03,-1043.5"/>
</g>
<!-- \\GSoares\\CleanCode\\Application\\Controller\\AccountEntryController -->
<g id="node10" class="node"><title>\\GSoares\\CleanCode\\Application\\Controller\\AccountEntryController</title>
<polygon fill="none" stroke="black" points="1323.84,-1011 1162.39,-1011 1162.39,-975 1323.84,-975 1323.84,-1011"/>
<text text-anchor="middle" x="1243.11" y="-989.7" font-family="Courier,monospace" font-size="11.00">AccountEntryController</text>
</g>
<!-- \\GSoares\\CleanCode\\Application\\Controller\\AccountEntryController&#45;&gt;\\GSoares\\CleanCode\\Application\\Controller\\AbstractController -->
<g id="edge7" class="edge"><title>\\GSoares\\CleanCode\\Application\\Controller\\AccountEntryController&#45;&gt;\\GSoares\\CleanCode\\Application\\Controller\\AbstractController</title>
<path fill="none" stroke="black" d="M1162.42,-1010.61C1134,-1016.88 1102.09,-1023.94 1073.97,-1030.15"/>
<polygon fill="none" stroke="black" points="1073.2,-1026.73 1064.19,-1032.31 1074.71,-1033.57 1073.2,-1026.73"/>
</g>
<!-- \\GSoares\\CleanCode\\Application\\Controller\\QualityController -->
<g id="node11" class="node"><title>\\GSoares\\CleanCode\\Application\\Controller\\QualityController</title>
<polygon fill="none" stroke="black" points="1307.33,-957 1178.89,-957 1178.89,-921 1307.33,-921 1307.33,-957"/>
<text text-anchor="middle" x="1243.11" y="-935.7" font-family="Courier,monospace" font-size="11.00">QualityController</text>
</g>
<!-- \\GSoares\\CleanCode\\Application\\Controller\\QualityController&#45;&gt;\\GSoares\\CleanCode\\Application\\Controller\\AbstractController -->
<g id="edge21" class="edge"><title>\\GSoares\\CleanCode\\Application\\Controller\\QualityController&#45;&gt;\\GSoares\\CleanCode\\Application\\Controller\\AbstractController</title>
<path fill="none" stroke="black" d="M1185.67,-957.127C1177.82,-959.939 1169.92,-962.934 1162.5,-966 1119.95,-983.586 1072.95,-1007.11 1040.07,-1024.27"/>
<polygon fill="none" stroke="black" points="1038.41,-1021.19 1031.19,-1028.94 1041.67,-1027.39 1038.41,-1021.19"/>
</g>
<!-- \\Symfony\\Component\\DependencyInjection\\ContainerAwareInterface -->
<g id="node38" class="node"><title>\\Symfony\\Component\\DependencyInjection\\ContainerAwareInterface</title>
<ellipse fill="none" stroke="black" cx="258.303" cy="-1125" rx="258.105" ry="18"/>
<text text-anchor="middle" x="258.303" y="-1120.8" font-family="Times,serif" font-size="14.00" fill="gray">\Symfony\Component\DependencyInjection\ContainerAwareInterface</text>
</g>
<!-- \\GSoares\\CleanCode\\Application\\Controller\\ControllerInterface&#45;&gt;\\Symfony\\Component\\DependencyInjection\\ContainerAwareInterface -->
<g id="edge26" class="edge"><title>\\GSoares\\CleanCode\\Application\\Controller\\ControllerInterface&#45;&gt;\\Symfony\\Component\\DependencyInjection\\ContainerAwareInterface</title>
<path fill="none" stroke="black" d="M639.007,-1081.91C576.586,-1089 483.056,-1099.61 404.444,-1108.53"/>
<polygon fill="none" stroke="black" points="403.985,-1105.06 394.443,-1109.66 404.774,-1112.01 403.985,-1105.06"/>
</g>
<!-- \\GSoares\\CleanCode\\Application\\Service\\DateTime\\Retriever -->
<g id="node13" class="node"><title>\\GSoares\\CleanCode\\Application\\Service\\DateTime\\Retriever</title>
<polygon fill="none" stroke="black" points="1281.02,-1285 1205.2,-1285 1205.2,-1249 1281.02,-1249 1281.02,-1285"/>
<text text-anchor="middle" x="1243.11" y="-1263.7" font-family="Courier,monospace" font-size="11.00">Retriever</text>
</g>
<!-- \\GSoares\\CleanCode\\Application\\Service\\DateTime\\CurrentRetrieverInterface -->
<g id="node14" class="node"><title>\\GSoares\\CleanCode\\Application\\Service\\DateTime\\CurrentRetrieverInterface</title>
<polygon fill="none" stroke="black" points="1087.21,-1285 906.16,-1285 906.16,-1249 1087.21,-1249 1087.21,-1285"/>
<text text-anchor="middle" x="996.687" y="-1263.7" font-family="Courier,monospace" font-size="11.00">CurrentRetrieverInterface</text>
</g>
<!-- \\GSoares\\CleanCode\\Application\\Service\\DateTime\\Retriever&#45;&gt;\\GSoares\\CleanCode\\Application\\Service\\DateTime\\CurrentRetrieverInterface -->
<g id="edge6" class="edge"><title>\\GSoares\\CleanCode\\Application\\Service\\DateTime\\Retriever&#45;&gt;\\GSoares\\CleanCode\\Application\\Service\\DateTime\\CurrentRetrieverInterface</title>
<path fill="none" stroke="black" stroke-dasharray="1,5" d="M1205.25,-1267C1176.61,-1267 1135.46,-1267 1097.35,-1267"/>
<polygon fill="none" stroke="black" points="1097.21,-1263.5 1087.21,-1267 1097.21,-1270.5 1097.21,-1263.5"/>
</g>
<!-- \\GSoares\\CleanCode\\Application\\Service\\Response\\Loader -->
<g id="node15" class="node"><title>\\GSoares\\CleanCode\\Application\\Service\\Response\\Loader</title>
<polygon fill="none" stroke="black" points="1270.72,-1206 1215.5,-1206 1215.5,-1170 1270.72,-1170 1270.72,-1206"/>
<text text-anchor="middle" x="1243.11" y="-1184.7" font-family="Courier,monospace" font-size="11.00">Loader</text>
</g>
<!-- \\GSoares\\CleanCode\\Application\\Service\\Response\\LoaderInterface -->
<g id="node16" class="node"><title>\\GSoares\\CleanCode\\Application\\Service\\Response\\LoaderInterface</title>
<polygon fill="none" stroke="black" points="1054.2,-1206 939.17,-1206 939.17,-1170 1054.2,-1170 1054.2,-1206"/>
<text text-anchor="middle" x="996.687" y="-1184.7" font-family="Courier,monospace" font-size="11.00">LoaderInterface</text>
</g>
<!-- \\GSoares\\CleanCode\\Application\\Service\\Response\\Loader&#45;&gt;\\GSoares\\CleanCode\\Application\\Service\\Response\\LoaderInterface -->
<g id="edge23" class="edge"><title>\\GSoares\\CleanCode\\Application\\Service\\Response\\Loader&#45;&gt;\\GSoares\\CleanCode\\Application\\Service\\Response\\LoaderInterface</title>
<path fill="none" stroke="black" stroke-dasharray="1,5" d="M1215.49,-1188C1179.49,-1188 1114.07,-1188 1064.29,-1188"/>
<polygon fill="none" stroke="black" points="1064.24,-1184.5 1054.24,-1188 1064.24,-1191.5 1064.24,-1184.5"/>
</g>
<!-- \\GSoares\\CleanCode\\Application\\Service\\Response\\LoaderInterface&#45;&gt;\\Symfony\\Component\\DependencyInjection\\ContainerAwareInterface -->
<g id="edge27" class="edge"><title>\\GSoares\\CleanCode\\Application\\Service\\Response\\LoaderInterface&#45;&gt;\\Symfony\\Component\\DependencyInjection\\ContainerAwareInterface</title>
<path fill="none" stroke="black" d="M939.126,-1183.16C832.081,-1174 595.95,-1153.8 432.256,-1139.8"/>
<polygon fill="none" stroke="black" points="432.334,-1136.29 422.072,-1138.93 431.737,-1143.27 432.334,-1136.29"/>
</g>
<!-- \\GSoares\\CleanCode\\Service\\Account\\Creator -->
<g id="node17" class="node"><title>\\GSoares\\CleanCode\\Service\\Account\\Creator</title>
<polygon fill="none" stroke="black" points="1274.32,-843 1211.9,-843 1211.9,-807 1274.32,-807 1274.32,-843"/>
<text text-anchor="middle" x="1243.11" y="-821.7" font-family="Courier,monospace" font-size="11.00">Creator</text>
</g>
<!-- \\GSoares\\CleanCode\\Service\\Account\\AbstractSaver -->
<g id="node19" class="node"><title>\\GSoares\\CleanCode\\Service\\Account\\AbstractSaver</title>
<polygon fill="none" stroke="black" points="1047.5,-816 945.872,-816 945.872,-780 1047.5,-780 1047.5,-816"/>
<text text-anchor="start" x="963.681" y="-800.2" font-family="Courier,monospace" font-size="11.00">«abstract»</text>
<text text-anchor="start" x="953.78" y="-789.2" font-family="Courier,monospace" font-size="11.00">AbstractSaver</text>
</g>
<!-- \\GSoares\\CleanCode\\Service\\Account\\Creator&#45;&gt;\\GSoares\\CleanCode\\Service\\Account\\AbstractSaver -->
<g id="edge5" class="edge"><title>\\GSoares\\CleanCode\\Service\\Account\\Creator&#45;&gt;\\GSoares\\CleanCode\\Service\\Account\\AbstractSaver</title>
<path fill="none" stroke="black" d="M1211.65,-821.635C1173.3,-817.399 1106.54,-810.024 1057.77,-804.637"/>
<polygon fill="none" stroke="black" points="1057.97,-801.138 1047.65,-803.519 1057.2,-808.096 1057.97,-801.138"/>
</g>
<!-- \\GSoares\\CleanCode\\Service\\Account\\Updater -->
<g id="node18" class="node"><title>\\GSoares\\CleanCode\\Service\\Account\\Updater</title>
<polygon fill="none" stroke="black" points="1274.32,-789 1211.9,-789 1211.9,-753 1274.32,-753 1274.32,-789"/>
<text text-anchor="middle" x="1243.11" y="-767.7" font-family="Courier,monospace" font-size="11.00">Updater</text>
</g>
<!-- \\GSoares\\CleanCode\\Service\\Account\\Updater&#45;&gt;\\GSoares\\CleanCode\\Service\\Account\\AbstractSaver -->
<g id="edge8" class="edge"><title>\\GSoares\\CleanCode\\Service\\Account\\Updater&#45;&gt;\\GSoares\\CleanCode\\Service\\Account\\AbstractSaver</title>
<path fill="none" stroke="black" d="M1211.65,-774.365C1173.3,-778.601 1106.54,-785.976 1057.77,-791.363"/>
<polygon fill="none" stroke="black" points="1057.2,-787.904 1047.65,-792.481 1057.97,-794.862 1057.2,-787.904"/>
</g>
<!-- \\GSoares\\CleanCode\\Service\\Account\\SaverInterface -->
<g id="node20" class="node"><title>\\GSoares\\CleanCode\\Service\\Account\\SaverInterface</title>
<polygon fill="none" stroke="black" points="764.155,-816 655.323,-816 655.323,-780 764.155,-780 764.155,-816"/>
<text text-anchor="middle" x="709.739" y="-794.7" font-family="Courier,monospace" font-size="11.00">SaverInterface</text>
</g>
<!-- \\GSoares\\CleanCode\\Service\\Account\\AbstractSaver&#45;&gt;\\GSoares\\CleanCode\\Service\\Account\\SaverInterface -->
<g id="edge22" class="edge"><title>\\GSoares\\CleanCode\\Service\\Account\\AbstractSaver&#45;&gt;\\GSoares\\CleanCode\\Service\\Account\\SaverInterface</title>
<path fill="none" stroke="black" stroke-dasharray="1,5" d="M945.726,-798C897.992,-798 825.848,-798 774.097,-798"/>
<polygon fill="none" stroke="black" points="774.032,-794.5 764.032,-798 774.032,-801.5 774.032,-794.5"/>
</g>
<!-- \\GSoares\\CleanCode\\Service\\AccountEntry\\DebitGenerator -->
<g id="node21" class="node"><title>\\GSoares\\CleanCode\\Service\\AccountEntry\\DebitGenerator</title>
<polygon fill="none" stroke="black" points="1297.53,-710 1188.7,-710 1188.7,-674 1297.53,-674 1297.53,-710"/>
<text text-anchor="middle" x="1243.11" y="-688.7" font-family="Courier,monospace" font-size="11.00">DebitGenerator</text>
</g>
<!-- \\GSoares\\CleanCode\\Service\\AccountEntry\\AbstractGenerator -->
<g id="node22" class="node"><title>\\GSoares\\CleanCode\\Service\\AccountEntry\\AbstractGenerator</title>
<polygon fill="none" stroke="black" points="1060.9,-683 932.468,-683 932.468,-647 1060.9,-647 1060.9,-683"/>
<text text-anchor="start" x="963.681" y="-667.2" font-family="Courier,monospace" font-size="11.00">«abstract»</text>
<text text-anchor="start" x="940.577" y="-656.2" font-family="Courier,monospace" font-size="11.00">AbstractGenerator</text>
</g>
<!-- \\GSoares\\CleanCode\\Service\\AccountEntry\\DebitGenerator&#45;&gt;\\GSoares\\CleanCode\\Service\\AccountEntry\\AbstractGenerator -->
<g id="edge14" class="edge"><title>\\GSoares\\CleanCode\\Service\\AccountEntry\\DebitGenerator&#45;&gt;\\GSoares\\CleanCode\\Service\\AccountEntry\\AbstractGenerator</title>
<path fill="none" stroke="black" d="M1188.77,-686.108C1154.22,-682.291 1108.75,-677.268 1070.84,-673.081"/>
<polygon fill="none" stroke="black" points="1071.19,-669.598 1060.87,-671.979 1070.42,-676.556 1071.19,-669.598"/>
</g>
<!-- \\GSoares\\CleanCode\\Service\\AccountEntry\\GeneratorInterface -->
<g id="node24" class="node"><title>\\GSoares\\CleanCode\\Service\\AccountEntry\\GeneratorInterface</title>
<polygon fill="none" stroke="black" points="777.058,-683 642.419,-683 642.419,-647 777.058,-647 777.058,-683"/>
<text text-anchor="middle" x="709.739" y="-661.7" font-family="Courier,monospace" font-size="11.00">GeneratorInterface</text>
</g>
<!-- \\GSoares\\CleanCode\\Service\\AccountEntry\\AbstractGenerator&#45;&gt;\\GSoares\\CleanCode\\Service\\AccountEntry\\GeneratorInterface -->
<g id="edge17" class="edge"><title>\\GSoares\\CleanCode\\Service\\AccountEntry\\AbstractGenerator&#45;&gt;\\GSoares\\CleanCode\\Service\\AccountEntry\\GeneratorInterface</title>
<path fill="none" stroke="black" stroke-dasharray="1,5" d="M932.447,-665C889.614,-665 832.771,-665 787.366,-665"/>
<polygon fill="none" stroke="black" points="787.271,-661.5 777.271,-665 787.271,-668.5 787.271,-661.5"/>
</g>
<!-- \\GSoares\\CleanCode\\Service\\AccountEntry\\CreditGenerator -->
<g id="node23" class="node"><title>\\GSoares\\CleanCode\\Service\\AccountEntry\\CreditGenerator</title>
<polygon fill="none" stroke="black" points="1300.63,-656 1185.6,-656 1185.6,-620 1300.63,-620 1300.63,-656"/>
<text text-anchor="middle" x="1243.11" y="-634.7" font-family="Courier,monospace" font-size="11.00">CreditGenerator</text>
</g>
<!-- \\GSoares\\CleanCode\\Service\\AccountEntry\\CreditGenerator&#45;&gt;\\GSoares\\CleanCode\\Service\\AccountEntry\\AbstractGenerator -->
<g id="edge19" class="edge"><title>\\GSoares\\CleanCode\\Service\\AccountEntry\\CreditGenerator&#45;&gt;\\GSoares\\CleanCode\\Service\\AccountEntry\\AbstractGenerator</title>
<path fill="none" stroke="black" d="M1185.42,-644.262C1151.39,-648.021 1107.73,-652.844 1071.09,-656.892"/>
<polygon fill="none" stroke="black" points="1070.51,-653.435 1060.95,-658.012 1071.27,-660.393 1070.51,-653.435"/>
</g>
<!-- \\GSoares\\CleanCode\\Entity\\AccountEntry -->
<g id="node25" class="node"><title>\\GSoares\\CleanCode\\Entity\\AccountEntry</title>
<polygon fill="none" stroke="black" points="1290.83,-569 1195.4,-569 1195.4,-533 1290.83,-533 1290.83,-569"/>
<text text-anchor="middle" x="1243.11" y="-547.7" font-family="Courier,monospace" font-size="11.00">AccountEntry</text>
</g>
<!-- \\GSoares\\CleanCode\\Entity\\EntityInterface -->
<g id="node28" class="node"><title>\\GSoares\\CleanCode\\Entity\\EntityInterface</title>
<polygon fill="none" stroke="black" points="1054.2,-515 939.17,-515 939.17,-479 1054.2,-479 1054.2,-515"/>
<text text-anchor="middle" x="996.687" y="-493.7" font-family="Courier,monospace" font-size="11.00">EntityInterface</text>
</g>
<!-- \\GSoares\\CleanCode\\Entity\\AccountEntry&#45;&gt;\\GSoares\\CleanCode\\Entity\\EntityInterface -->
<g id="edge12" class="edge"><title>\\GSoares\\CleanCode\\Entity\\AccountEntry&#45;&gt;\\GSoares\\CleanCode\\Entity\\EntityInterface</title>
<path fill="none" stroke="black" stroke-dasharray="1,5" d="M1195.27,-540.652C1158.06,-532.43 1105.54,-520.828 1064.01,-511.652"/>
<polygon fill="none" stroke="black" points="1064.76,-508.234 1054.24,-509.494 1063.25,-515.069 1064.76,-508.234"/>
</g>
<!-- \\GSoares\\CleanCode\\Entity\\Customer -->
<g id="node26" class="node"><title>\\GSoares\\CleanCode\\Entity\\Customer</title>
<polygon fill="none" stroke="black" points="1277.42,-515 1208.8,-515 1208.8,-479 1277.42,-479 1277.42,-515"/>
<text text-anchor="middle" x="1243.11" y="-493.7" font-family="Courier,monospace" font-size="11.00">Customer</text>
</g>
<!-- \\GSoares\\CleanCode\\Entity\\Customer&#45;&gt;\\GSoares\\CleanCode\\Entity\\EntityInterface -->
<g id="edge15" class="edge"><title>\\GSoares\\CleanCode\\Entity\\Customer&#45;&gt;\\GSoares\\CleanCode\\Entity\\EntityInterface</title>
<path fill="none" stroke="black" stroke-dasharray="1,5" d="M1208.64,-497C1171.73,-497 1111.4,-497 1064.69,-497"/>
<polygon fill="none" stroke="black" points="1064.64,-493.5 1054.64,-497 1064.64,-500.5 1064.64,-493.5"/>
</g>
<!-- \\GSoares\\CleanCode\\Entity\\Account -->
<g id="node27" class="node"><title>\\GSoares\\CleanCode\\Entity\\Account</title>
<polygon fill="none" stroke="black" points="1274.32,-461 1211.9,-461 1211.9,-425 1274.32,-425 1274.32,-461"/>
<text text-anchor="middle" x="1243.11" y="-439.7" font-family="Courier,monospace" font-size="11.00">Account</text>
</g>
<!-- \\GSoares\\CleanCode\\Entity\\Account&#45;&gt;\\GSoares\\CleanCode\\Entity\\EntityInterface -->
<g id="edge18" class="edge"><title>\\GSoares\\CleanCode\\Entity\\Account&#45;&gt;\\GSoares\\CleanCode\\Entity\\EntityInterface</title>
<path fill="none" stroke="black" stroke-dasharray="1,5" d="M1211.65,-449.73C1174.97,-457.833 1112.31,-471.677 1064.25,-482.295"/>
<polygon fill="none" stroke="black" points="1063.24,-478.934 1054.23,-484.509 1064.75,-485.769 1063.24,-478.934"/>
</g>
<!-- \\GSoares\\CleanCode\\Entity\\ModificationTimeTrait -->
<g id="node29" class="node"><title>\\GSoares\\CleanCode\\Entity\\ModificationTimeTrait</title>
<polygon fill="none" stroke="black" points="1320.24,-407 1165.99,-407 1165.99,-371 1320.24,-371 1320.24,-407"/>
<text text-anchor="middle" x="1243.11" y="-385.7" font-family="Courier,monospace" font-size="11.00">ModificationTimeTrait</text>
</g>
<!-- \\GSoares\\CleanCode\\Entity\\AccountTrait -->
<g id="node30" class="node"><title>\\GSoares\\CleanCode\\Entity\\AccountTrait</title>
<polygon fill="none" stroke="black" points="1290.83,-353 1195.4,-353 1195.4,-317 1290.83,-317 1290.83,-353"/>
<text text-anchor="middle" x="1243.11" y="-331.7" font-family="Courier,monospace" font-size="11.00">AccountTrait</text>
</g>
<!-- \\GSoares\\CleanCode\\Entity\\IdTrait -->
<g id="node31" class="node"><title>\\GSoares\\CleanCode\\Entity\\IdTrait</title>
<polygon fill="none" stroke="black" points="1274.32,-299 1211.9,-299 1211.9,-263 1274.32,-263 1274.32,-299"/>
<text text-anchor="middle" x="1243.11" y="-277.7" font-family="Courier,monospace" font-size="11.00">IdTrait</text>
</g>
<!-- \\GSoares\\CleanCode\\Repository\\AccountEntryRepository -->
<g id="node32" class="node"><title>\\GSoares\\CleanCode\\Repository\\AccountEntryRepository</title>
<polygon fill="none" stroke="black" points="1323.84,-220 1162.39,-220 1162.39,-184 1323.84,-184 1323.84,-220"/>
<text text-anchor="middle" x="1243.11" y="-198.7" font-family="Courier,monospace" font-size="11.00">AccountEntryRepository</text>
</g>
<!-- \\GSoares\\CleanCode\\Repository\\AbstractRepository -->
<g id="node35" class="node"><title>\\GSoares\\CleanCode\\Repository\\AbstractRepository</title>
<polygon fill="none" stroke="black" points="1064.01,-139 929.367,-139 929.367,-103 1064.01,-103 1064.01,-139"/>
<text text-anchor="start" x="963.681" y="-123.2" font-family="Courier,monospace" font-size="11.00">«abstract»</text>
<text text-anchor="start" x="937.277" y="-112.2" font-family="Courier,monospace" font-size="11.00">AbstractRepository</text>
</g>
<!-- \\GSoares\\CleanCode\\Repository\\AccountEntryRepository&#45;&gt;\\GSoares\\CleanCode\\Repository\\AbstractRepository -->
<g id="edge9" class="edge"><title>\\GSoares\\CleanCode\\Repository\\AccountEntryRepository&#45;&gt;\\GSoares\\CleanCode\\Repository\\AbstractRepository</title>
<path fill="none" stroke="black" d="M1187.56,-183.923C1150.34,-171.587 1100.88,-155.197 1061.77,-142.238"/>
<polygon fill="none" stroke="black" points="1062.66,-138.845 1052.07,-139.022 1060.46,-145.49 1062.66,-138.845"/>
</g>
<!-- \\GSoares\\CleanCode\\Repository\\AccountRepository -->
<g id="node33" class="node"><title>\\GSoares\\CleanCode\\Repository\\AccountRepository</title>
<polygon fill="none" stroke="black" points="1307.33,-166 1178.89,-166 1178.89,-130 1307.33,-130 1307.33,-166"/>
<text text-anchor="middle" x="1243.11" y="-144.7" font-family="Courier,monospace" font-size="11.00">AccountRepository</text>
</g>
<!-- \\GSoares\\CleanCode\\Repository\\AccountRepository&#45;&gt;\\GSoares\\CleanCode\\Repository\\AbstractRepository -->
<g id="edge16" class="edge"><title>\\GSoares\\CleanCode\\Repository\\AccountRepository&#45;&gt;\\GSoares\\CleanCode\\Repository\\AbstractRepository</title>
<path fill="none" stroke="black" d="M1178.85,-141.012C1146.93,-137.486 1107.96,-133.181 1074.35,-129.468"/>
<polygon fill="none" stroke="black" points="1074.43,-125.956 1064.1,-128.336 1073.66,-132.913 1074.43,-125.956"/>
</g>
<!-- \\GSoares\\CleanCode\\Repository\\CustomerRepository -->
<g id="node34" class="node"><title>\\GSoares\\CleanCode\\Repository\\CustomerRepository</title>
<polygon fill="none" stroke="black" points="1310.43,-112 1175.79,-112 1175.79,-76 1310.43,-76 1310.43,-112"/>
<text text-anchor="middle" x="1243.11" y="-90.7" font-family="Courier,monospace" font-size="11.00">CustomerRepository</text>
</g>
<!-- \\GSoares\\CleanCode\\Repository\\CustomerRepository&#45;&gt;\\GSoares\\CleanCode\\Repository\\AbstractRepository -->
<g id="edge20" class="edge"><title>\\GSoares\\CleanCode\\Repository\\CustomerRepository&#45;&gt;\\GSoares\\CleanCode\\Repository\\AbstractRepository</title>
<path fill="none" stroke="black" d="M1175.64,-101.342C1144.39,-104.794 1106.95,-108.93 1074.49,-112.516"/>
<polygon fill="none" stroke="black" points="1073.7,-109.082 1064.14,-113.659 1074.46,-116.04 1073.7,-109.082"/>
</g>
<!-- \\GSoares\\CleanCode\\Repository\\RepositoryInterface -->
<g id="node36" class="node"><title>\\GSoares\\CleanCode\\Repository\\RepositoryInterface</title>
<polygon fill="none" stroke="black" points="780.66,-139 638.818,-139 638.818,-103 780.66,-103 780.66,-139"/>
<text text-anchor="middle" x="709.739" y="-117.7" font-family="Courier,monospace" font-size="11.00">RepositoryInterface</text>
</g>
<!-- \\GSoares\\CleanCode\\Repository\\AbstractRepository&#45;&gt;\\GSoares\\CleanCode\\Repository\\RepositoryInterface -->
<g id="edge25" class="edge"><title>\\GSoares\\CleanCode\\Repository\\AbstractRepository&#45;&gt;\\GSoares\\CleanCode\\Repository\\RepositoryInterface</title>
<path fill="none" stroke="black" stroke-dasharray="1,5" d="M929.239,-121C887.816,-121 834.269,-121 790.551,-121"/>
<polygon fill="none" stroke="black" points="790.524,-117.5 780.524,-121 790.524,-124.5 790.524,-117.5"/>
</g>
<!-- \\Doctrine\\ORM\\EntityRepository -->
<g id="node37" class="node"><title>\\Doctrine\\ORM\\EntityRepository</title>
<ellipse fill="none" stroke="black" cx="709.739" cy="-18" rx="121.268" ry="18"/>
<text text-anchor="middle" x="709.739" y="-13.8" font-family="Times,serif" font-size="14.00" fill="gray">\Doctrine\ORMntityRepository</text>
</g>
<!-- \\GSoares\\CleanCode\\Repository\\AbstractRepository&#45;&gt;\\Doctrine\\ORM\\EntityRepository -->
<g id="edge24" class="edge"><title>\\GSoares\\CleanCode\\Repository\\AbstractRepository&#45;&gt;\\Doctrine\\ORM\\EntityRepository</title>
<path fill="none" stroke="black" d="M945.726,-102.941C895.539,-84.7998 818.37,-56.9054 766.287,-38.0789"/>
<polygon fill="none" stroke="black" points="767.46,-34.7814 756.866,-34.6735 765.08,-41.3646 767.46,-34.7814"/>
</g>
<!-- \\Doctrine\\Common\\Persistence\\ObjectRepository -->
<g id="node39" class="node"><title>\\Doctrine\\Common\\Persistence\\ObjectRepository</title>
<ellipse fill="none" stroke="black" cx="258.303" cy="-148" rx="185.923" ry="18"/>
<text text-anchor="middle" x="258.303" y="-143.8" font-family="Times,serif" font-size="14.00" fill="gray">\Doctrine\Common\Persistence\ObjectRepository</text>
</g>
<!-- \\GSoares\\CleanCode\\Repository\\RepositoryInterface&#45;&gt;\\Doctrine\\Common\\Persistence\\ObjectRepository -->
<g id="edge28" class="edge"><title>\\GSoares\\CleanCode\\Repository\\RepositoryInterface&#45;&gt;\\Doctrine\\Common\\Persistence\\ObjectRepository</title>
<path fill="none" stroke="black" d="M639.007,-125.189C582.491,-128.584 500.475,-133.511 427.119,-137.918"/>
<polygon fill="none" stroke="black" points="426.601,-134.443 416.829,-138.537 427.021,-141.431 426.601,-134.443"/>
</g>
<!-- \\Doctrine\\Common\\Collections\\Selectable -->
<g id="node40" class="node"><title>\\Doctrine\\Common\\Collections\\Selectable</title>
<ellipse fill="none" stroke="black" cx="258.303" cy="-94" rx="160.331" ry="18"/>
<text text-anchor="middle" x="258.303" y="-89.8" font-family="Times,serif" font-size="14.00" fill="gray">\Doctrine\Common\Collections\Selectable</text>
</g>
<!-- \\GSoares\\CleanCode\\Repository\\RepositoryInterface&#45;&gt;\\Doctrine\\Common\\Collections\\Selectable -->
<g id="edge29" class="edge"><title>\\GSoares\\CleanCode\\Repository\\RepositoryInterface&#45;&gt;\\Doctrine\\Common\\Collections\\Selectable</title>
<path fill="none" stroke="black" d="M639.007,-116.811C578.129,-113.154 487.66,-107.719 410.3,-103.071"/>
<polygon fill="none" stroke="black" points="410.155,-99.5563 399.964,-102.45 409.736,-106.544 410.155,-99.5563"/>
</g>
</g>
</svg>
